<svg width="18" height="18" viewBox="0 0 18 18" fill="none" xmlns="http://www.w3.org/2000/svg">
<path d="M17.0917 15.9083L14 12.8416C15.2001 11.3453 15.7813 9.44606 15.624 7.5344C15.4668 5.62273 14.5831 3.84397 13.1546 2.56385C11.7261 1.28374 9.86151 0.599573 7.9441 0.65204C6.0267 0.704507 4.20227 1.48962 2.84595 2.84593C1.48964 4.20225 0.704526 6.02668 0.652059 7.94408C0.599592 9.86149 1.28376 11.7261 2.56387 13.1546C3.84399 14.583 5.62275 15.4667 7.53442 15.624C9.44608 15.7812 11.3453 15.2001 12.8417 14L15.9083 17.0666C15.9858 17.1448 16.078 17.2068 16.1795 17.2491C16.2811 17.2914 16.39 17.3131 16.5 17.3131C16.61 17.3131 16.7189 17.2914 16.8205 17.2491C16.922 17.2068 17.0142 17.1448 17.0917 17.0666C17.2419 16.9113 17.3258 16.7036 17.3258 16.4875C17.3258 16.2714 17.2419 16.0637 17.0917 15.9083V15.9083ZM8.16667 14C7.01294 14 5.88513 13.6579 4.92584 13.0169C3.96655 12.3759 3.21888 11.4649 2.77737 10.399C2.33586 9.33307 2.22034 8.16018 2.44542 7.02862C2.6705 5.89707 3.22607 4.85767 4.04188 4.04186C4.85768 3.22605 5.89708 2.67048 7.02864 2.4454C8.1602 2.22032 9.33309 2.33584 10.399 2.77735C11.4649 3.21886 12.3759 3.96654 13.0169 4.92582C13.6579 5.88511 14 7.01292 14 8.16665C14 9.71374 13.3854 11.1975 12.2915 12.2914C11.1975 13.3854 9.71376 14 8.16667 14V14Z" fill="black"/>
</svg>
